<svg width="45" height="45" viewBox="0 0 45 45" fill="none" xmlns="http://www.w3.org/2000/svg">
<path d="M22.5 3.75C18.7916 3.75 15.1665 4.84967 12.0831 6.90994C8.99964 8.97022 6.59641 11.8986 5.17727 15.3247C3.75812 18.7508 3.38681 22.5208 4.11028 26.1579C4.83376 29.7951 6.61952 33.136 9.24176 35.7583C11.864 38.3805 15.2049 40.1663 18.8421 40.8897C22.4792 41.6132 26.2492 41.2419 29.6753 39.8227C33.1014 38.4036 36.0298 36.0004 38.0901 32.9169C40.1503 29.8335 41.25 26.2084 41.25 22.5C41.25 20.0377 40.765 17.5995 39.8227 15.3247C38.8805 13.0498 37.4994 10.9828 35.7583 9.24175C34.0172 7.50065 31.9502 6.11953 29.6753 5.17726C27.4005 4.23498 24.9623 3.75 22.5 3.75V3.75ZM22.5 33.75C22.1292 33.75 21.7667 33.64 21.4583 33.434C21.15 33.228 20.9096 32.9351 20.7677 32.5925C20.6258 32.2499 20.5887 31.8729 20.661 31.5092C20.7334 31.1455 20.912 30.8114 21.1742 30.5492C21.4364 30.2869 21.7705 30.1084 22.1342 30.036C22.4979 29.9637 22.8749 30.0008 23.2175 30.1427C23.5602 30.2846 23.853 30.525 24.059 30.8333C24.265 31.1416 24.375 31.5042 24.375 31.875C24.375 32.3723 24.1775 32.8492 23.8258 33.2008C23.4742 33.5525 22.9973 33.75 22.5 33.75ZM24.375 24.075V26.25C24.375 26.7473 24.1775 27.2242 23.8258 27.5758C23.4742 27.9275 22.9973 28.125 22.5 28.125C22.0027 28.125 21.5258 27.9275 21.1742 27.5758C20.8226 27.2242 20.625 26.7473 20.625 26.25V22.5C20.625 22.0027 20.8226 21.5258 21.1742 21.1742C21.5258 20.8225 22.0027 20.625 22.5 20.625C23.0563 20.625 23.6 20.4601 24.0625 20.151C24.5251 19.842 24.8855 19.4027 25.0984 18.8888C25.3113 18.3749 25.367 17.8094 25.2585 17.2638C25.1499 16.7182 24.8821 16.2171 24.4887 15.8238C24.0954 15.4304 23.5943 15.1626 23.0487 15.054C22.5031 14.9455 21.9376 15.0012 21.4237 15.2141C20.9098 15.427 20.4705 15.7874 20.1615 16.25C19.8525 16.7125 19.6875 17.2562 19.6875 17.8125C19.6875 18.3098 19.49 18.7867 19.1383 19.1383C18.7867 19.49 18.3098 19.6875 17.8125 19.6875C17.3152 19.6875 16.8383 19.49 16.4867 19.1383C16.1351 18.7867 15.9375 18.3098 15.9375 17.8125C15.9326 16.5943 16.2669 15.3988 16.9029 14.3598C17.5389 13.3208 18.4515 12.4794 19.5387 11.9297C20.6258 11.38 21.8444 11.1437 23.0582 11.2474C24.272 11.351 25.433 11.7904 26.4112 12.5165C27.3894 13.2425 28.1462 14.2265 28.5968 15.3583C29.0475 16.49 29.1743 17.7249 28.9629 18.9246C28.7516 20.1243 28.2105 21.2415 27.4002 22.1512C26.5899 23.0608 25.5424 23.7269 24.375 24.075V24.075Z" fill="white"/>
</svg>
