<svg width="40" height="40" viewBox="0 0 40 40" fill="none" xmlns="http://www.w3.org/2000/svg">
<g clip-path="url(#clip0_4_8)">
<path d="M40 13.7501C40 21.344 33.8439 27.5 26.25 27.5C25.3734 27.5 24.5164 27.417 23.6854 27.2602L21.8095 29.3707C21.6335 29.5686 21.4177 29.727 21.1762 29.8355C20.9346 29.9439 20.6728 30 20.408 30H17.5V33.125C17.5 34.1605 16.6605 35 15.625 35H12.5V38.125C12.5 39.1605 11.6605 40 10.625 40H1.875C0.839453 40 0 39.1605 0 38.125V32.0266C0 31.5294 0.197578 31.0524 0.549141 30.7008L13.1899 18.06C12.7428 16.7042 12.5 15.2555 12.5 13.75C12.5 6.15609 18.656 7.81258e-05 26.2499 7.46295e-10C33.8662 -7.81243e-05 40 6.13367 40 13.7501ZM26.25 10C26.25 12.0711 27.9289 13.75 30 13.75C32.0711 13.75 33.75 12.0711 33.75 10C33.75 7.92891 32.0711 6.25 30 6.25C27.9289 6.25 26.25 7.92891 26.25 10Z" fill="#B9BAD9"/>
</g>
<defs>
<clipPath id="clip0_4_8">
<rect width="40" height="40" fill="white"/>
</clipPath>
</defs>
</svg>
