<svg width="40" height="46" viewBox="0 0 40 46" fill="none" xmlns="http://www.w3.org/2000/svg">
<g clip-path="url(#clip0_4_10)">
<path d="M20 22.8571C26.3125 22.8571 31.4286 17.7411 31.4286 11.4286C31.4286 5.11607 26.3125 0 20 0C13.6875 0 8.57143 5.11607 8.57143 11.4286C8.57143 17.7411 13.6875 22.8571 20 22.8571ZM28 25.7143H26.5089C24.5268 26.625 22.3214 27.1429 20 27.1429C17.6786 27.1429 15.4821 26.625 13.4911 25.7143H12C5.375 25.7143 0 31.0893 0 37.7143V41.4286C0 43.7946 1.91964 45.7143 4.28571 45.7143H35.7143C38.0804 45.7143 40 43.7946 40 41.4286V37.7143C40 31.0893 34.625 25.7143 28 25.7143Z" fill="#B9BAD9"/>
</g>
<defs>
<clipPath id="clip0_4_10">
<rect width="40" height="45.7143" fill="white"/>
</clipPath>
</defs>
</svg>
